<?xml version="1.0" encoding="UTF-8"?>
<svg id="Layer_2" data-name="Layer 2" xmlns="http://www.w3.org/2000/svg" xmlns:xlink="http://www.w3.org/1999/xlink" viewBox="0 0 881.03 207.22">
  <defs>
    <style>
      .cls-1 {
        fill: url(#linear-gradient);
      }

      .cls-1, .cls-2, .cls-3, .cls-4, .cls-5, .cls-6, .cls-7, .cls-8, .cls-9 {
        stroke-width: 0px;
      }

      .cls-2 {
        fill: url(#linear-gradient-6);
      }

      .cls-3 {
        fill: url(#linear-gradient-5);
      }

      .cls-10 {
        filter: url(#drop-shadow-1);
      }

      .cls-4 {
        fill: url(#linear-gradient-2);
      }

      .cls-5 {
        fill: url(#linear-gradient-7);
      }

      .cls-6 {
        fill: url(#linear-gradient-3);
      }

      .cls-7 {
        fill: url(#linear-gradient-9);
      }

      .cls-8 {
        fill: url(#linear-gradient-8);
      }

      .cls-9 {
        fill: url(#linear-gradient-4);
      }
    </style>
    <filter id="drop-shadow-1" filterUnits="userSpaceOnUse">
      <feOffset dx="2" dy="2"/>
      <feGaussianBlur result="blur" stdDeviation="3"/>
      <feFlood flood-color="#000" flood-opacity=".25"/>
      <feComposite in2="blur" operator="in"/>
      <feComposite in="SourceGraphic"/>
    </filter>
    <linearGradient id="linear-gradient" x1="257.93" y1="-239.52" x2="257.93" y2="420.07" gradientUnits="userSpaceOnUse">
      <stop offset="0" stop-color="#f2c125"/>
      <stop offset="1" stop-color="#e84600"/>
    </linearGradient>
    <linearGradient id="linear-gradient-2" x1="359.23" x2="359.23" y2="420.07" xlink:href="#linear-gradient"/>
    <linearGradient id="linear-gradient-3" x1="486.98" y1="-239.52" x2="486.98" y2="420.07" xlink:href="#linear-gradient"/>
    <linearGradient id="linear-gradient-4" x1="596.93" y1="-239.52" x2="596.93" y2="420.07" xlink:href="#linear-gradient"/>
    <linearGradient id="linear-gradient-5" x1="691.49" y1="-239.52" x2="691.49" y2="420.07" xlink:href="#linear-gradient"/>
    <linearGradient id="linear-gradient-6" x1="812.17" y1="-239.52" x2="812.17" y2="420.07" xlink:href="#linear-gradient"/>
    <linearGradient id="linear-gradient-7" x1="94.84" y1="-239.52" x2="94.84" y2="420.07" xlink:href="#linear-gradient"/>
    <linearGradient id="linear-gradient-8" x1="812.03" y1="-194.85" x2="812.03" y2="371.81" xlink:href="#linear-gradient"/>
    <linearGradient id="linear-gradient-9" x1="812.11" y1="-196.75" x2="812.11" y2="369.92" xlink:href="#linear-gradient"/>
  </defs>
  <g id="Layer_1-2" data-name="Layer 1">
    <g class="cls-10">
      <path class="cls-1" d="m315.87,200.93c-.86-.32-2.31-1.21-4.35-2.66-2.04-1.45-3.71-3.68-5-6.69l-11.92-29c-.86-1.82-.73-3.68.4-5.56,1.13-1.88,2.44-3.25,3.95-4.11.22-.11.32-.24.32-.4s-.11-.29-.32-.4c-.65-.53-1.66-1.23-3.06-2.09-1.4-.86-2.74-1.72-4.03-2.58-3.33-2.15-5.75-5.05-7.25-8.7l-1.39-3.41-10.58-33.32h.16c-.54-1.5-.43-2.82.32-3.95.75-1.13,1.72-2.07,2.9-2.82,1.18-.75,2.39-1.34,3.62-1.77,1.23-.43,2.07-.7,2.5-.81.43-.21.64-.48.64-.81v-1.29c0-.65-.32-.97-.97-.97h-47.8c-.64,0-.97.32-.97.97v1.29c0,.32.22.59.64.81.43.11,1.26.38,2.5.81,1.23.43,2.44,1.02,3.62,1.77,1.18.75,2.15,1.69,2.9,2.82.75,1.13.86,2.45.32,3.95h.16l-10.58,33.32-1.39,3.41c-1.5,3.65-3.92,6.55-7.25,8.7-1.29.86-2.63,1.72-4.03,2.58-1.4.86-2.42,1.56-3.06,2.09-.22.11-.32.24-.32.4s.11.3.32.4c1.5.86,2.82,2.23,3.95,4.11,1.13,1.88,1.26,3.73.4,5.56l-11.92,29c-1.29,3.01-2.96,5.23-5,6.69-2.04,1.45-3.49,2.34-4.35,2.66-.43.11-.64.38-.64.81v1.29c0,.54.32.8.97.8h46.56c.54,0,.81-.21.81-.64v-1.77c0-.54-.27-.81-.81-.81-4.3-.11-7.55-.62-9.75-1.53-2.2-.91-3.73-1.96-4.59-3.14-1.07-1.29-1.56-2.74-1.45-4.35l5.64-13.86c.32-.86.97-1.29,1.93-1.29h38.55c.97,0,1.61.43,1.93,1.29l5.64,13.86c.11,1.61-.38,3.06-1.45,4.35-.86,1.18-2.39,2.23-4.59,3.14-2.2.91-5.45,1.42-9.75,1.53-.54,0-.81.27-.81.81v1.77c0,.43.27.64.81.64h46.56c.64,0,.97-.27.97-.8v-1.29c0-.43-.21-.7-.64-.81Zm-70.77-36.09c-.75,0-1.32-.29-1.69-.89-.38-.59-.46-1.21-.24-1.85l14.76-35.53,14.76,35.53c.22.65.14,1.26-.24,1.85-.38.59-.94.89-1.69.89h-25.66Z"/>
      <path class="cls-4" d="m315.66,122.96c0-4.29,1.15-8.54,3.46-12.73,2.31-4.19,5.53-7.95,9.67-11.28,4.13-3.33,8.97-6.02,14.5-8.05,5.53-2.04,11.52-3.06,17.96-3.06,5.26,0,9.85.4,13.77,1.21,3.92.81,7.25,1.77,9.99,2.9,2.74,1.13,4.97,2.28,6.69,3.46,1.72,1.18,2.95,2.1,3.71,2.74.64.64,1.02,1.4,1.13,2.26l3.71,18.53-4.19.81c-.86-2.36-1.77-4.62-2.74-6.77-.97-1.72-2.09-3.41-3.38-5.08-1.29-1.66-2.74-2.82-4.35-3.46h-.32c-.43-.21-.75-.32-.97-.32-3.33-1.29-7.14-2.44-11.44-3.46-4.3-1.02-8.81-1.53-13.53-1.53s-9.1.62-12.49,1.85c-3.38,1.23-6.15,2.79-8.3,4.67-2.15,1.88-3.71,3.95-4.67,6.2-.97,2.26-1.45,4.41-1.45,6.44,0,3.54,1.34,6.39,4.03,8.54,2.68,2.15,6.17,3.97,10.47,5.47,1.5.54,3.06.54,4.67,0,1.61-.53,2.84-1.5,3.71-2.9,0-.21.11-.43.32-.64.21-.54.54-.48.97.16,1.29,2.36,2.95,4.38,4.99,6.04,2.04,1.67,4.35,2.87,6.93,3.63,4.4,1.29,8.64,2.79,12.73,4.51,4.08,1.72,7.73,3.92,10.96,6.61,3.22,2.69,5.8,5.94,7.73,9.75,1.93,3.81,2.9,8.4,2.9,13.77,0,6.02-1.64,11.17-4.91,15.46-3.28,4.3-7.31,7.81-12.08,10.55-4.78,2.74-9.88,4.75-15.3,6.04-5.42,1.29-10.23,1.93-14.42,1.93-3.54,0-7.06-.46-10.55-1.37-3.49-.91-6.77-2.01-9.83-3.3-3.06-1.29-5.77-2.6-8.14-3.95-2.36-1.34-4.13-2.39-5.32-3.14-1.08-.75-1.72-1.72-1.93-2.9l-3.54-18.04,4.19-.81c.65,2.04,1.4,3.98,2.26,5.8.86,1.5,1.82,3.06,2.9,4.67,1.07,1.61,2.31,2.9,3.71,3.86.53.43,1.23.81,2.09,1.13.32.11.62.22.89.32.27.11.51.22.72.32,3.01,1.18,6.18,2.07,9.51,2.66,3.33.59,6.66.89,9.99.89,3.54,0,6.98-.35,10.31-1.05,3.33-.7,6.23-1.69,8.7-2.98,2.47-1.29,4.46-2.9,5.96-4.83,1.5-1.93,2.25-4.19,2.25-6.77,0-4.4-1.4-7.87-4.19-10.39-2.79-2.52-6.34-4.65-10.63-6.36-.54-.21-1.02-.38-1.45-.48-.43-.1-.91-.16-1.45-.16-2.58,0-4.57,1.24-5.96,3.71-.43.64-.75.64-.97,0-.22-.32-.46-.67-.73-1.05-.27-.38-.51-.73-.72-1.05-2.69-3.97-6.23-6.71-10.63-8.22-3.65-1.29-7.14-2.74-10.47-4.35-3.33-1.61-6.28-3.6-8.86-5.96-2.58-2.36-4.65-5.21-6.2-8.54-1.56-3.33-2.34-7.3-2.34-11.92Z"/>
      <path class="cls-6" d="m408.97,46.22v-2.5c0-.76.38-1.14,1.14-1.14h65.96c.76,0,1.14.46,1.14,1.37v1.82c0,.45-.23.83-.68,1.14-.46.15-1.37.45-2.73.91-1.36.45-2.77,1.06-4.21,1.82-1.44.76-2.77,1.67-3.98,2.73-1.21,1.06-2.05,2.27-2.5,3.64v52.99c.15,1.21.76,2.01,1.82,2.39,1.06.38,2.05.19,2.96-.57,7.73-7.12,15.09-13.95,22.06-20.47,3.03-2.73,6.06-5.53,9.1-8.42,3.03-2.88,5.99-5.65,8.87-8.3,2.88-2.65,5.53-5.15,7.96-7.51,2.42-2.35,4.47-4.28,6.14-5.8,1.36-1.36,2.01-2.8,1.93-4.32-.08-1.51-1.02-2.88-2.84-4.09-1.82-1.21-4.66-2.23-8.53-3.07-3.87-.83-8.83-1.33-14.9-1.48-.61,0-.91-.38-.91-1.14v-2.5c0-.76.3-1.14.91-1.14h65.96c.91,0,1.36.46,1.36,1.37v1.82c0,.45-.31.83-.91,1.14-1.22.45-3.41,2.01-6.6,4.66-3.18,2.65-6.98,6.11-11.37,10.35l-2.05,1.82h-.23l-45.26,42.08c-.91.76-1.4,1.78-1.48,3.07-.08,1.29.26,2.39,1.02,3.3l49.35,66.86c3.94,5.77,7.39,10.54,10.35,14.33,2.96,3.79,5.04,5.91,6.26,6.37.6.31.91.68.91,1.14v1.82c0,.76-.46,1.14-1.36,1.14h-65.96c-.61,0-.91-.3-.91-.91v-2.5c0-.76.3-1.14.91-1.14,4.85-.15,8.75-.64,11.71-1.48,2.96-.83,5.35-1.85,7.16-3.07.76-.61,1.25-1.4,1.48-2.39.23-.98.04-1.93-.57-2.84l-39.12-52.76c-1.06-1.36-2.43-2.05-4.09-2.05s-3.18.8-4.55,2.39c-1.36,1.59-2.54,3.49-3.52,5.69-.99,2.2-1.75,4.4-2.27,6.59-.53,2.2-.8,3.98-.8,5.35v31.84h.23c.91,2.12,2.01,3.98,3.3,5.57,1.29,1.59,2.58,2.92,3.87,3.98,1.29,1.06,2.46,1.86,3.53,2.39,1.06.53,1.89.95,2.5,1.25.6.15.91.53.91,1.14v1.82c0,.76-.46,1.14-1.36,1.14h-65.73c-.76,0-1.14-.3-1.14-.91v-2.5c0-.76.38-1.14,1.14-1.14,4.85,0,8.72-.46,11.6-1.36,2.88-.91,5.08-1.97,6.59-3.18,1.51-1.21,2.54-2.47,3.07-3.75.53-1.29.87-2.31,1.02-3.07v-33.21c0-4.7-1.22-9.06-3.64-13.08-2.43-4.02-5.69-7.16-9.78-9.44v-.23c-.31-.15-.49-.34-.57-.57-.08-.23.04-.42.34-.57l.23-.23c4.24-2.73,7.54-6.25,9.89-10.58,2.35-4.32,3.53-8.98,3.53-13.99v-47.31c-.15-.76-.49-1.78-1.02-3.07-.53-1.29-1.56-2.54-3.07-3.75-1.52-1.21-3.75-2.27-6.71-3.18-2.96-.91-6.86-1.36-11.71-1.36-.76,0-1.14-.38-1.14-1.14Z"/>
      <path class="cls-9" d="m573.4,89.61h46.72c.64,0,.97.32.97.97v1.29c0,.32-.22.59-.64.81-.32.11-.97.32-1.93.64-.97.32-1.96.75-2.98,1.29-1.02.54-1.96,1.18-2.82,1.93-.86.75-1.45,1.61-1.77,2.58v2.58c0,.11.05.22.16.32h-.16v32.7c0,3.44.83,6.71,2.5,9.83,1.66,3.12,4,5.59,7.01,7.41v.16c.54.22.54.48,0,.81l-.16.16c-2.9,1.61-5.18,3.84-6.85,6.69-1.67,2.85-2.5,5.94-2.5,9.26v22.55h.16c1.29,3.12,2.98,5.37,5.07,6.76,2.1,1.4,3.57,2.26,4.43,2.58.32.11.48.38.48.81v1.29c0,.54-.27.8-.81.8h-46.72c-.54,0-.81-.21-.81-.64v-1.77c0-.54.27-.81.81-.81,3.44,0,6.17-.32,8.22-.97,2.04-.64,3.63-1.4,4.75-2.26,1.13-.86,1.88-1.75,2.26-2.66.37-.91.56-1.64.56-2.17v-23.52c0-3.33-.83-6.42-2.5-9.26-1.67-2.84-3.95-5.07-6.85-6.69l-.16-.16c-.54-.32-.54-.59,0-.81v-.16c3.01-1.93,5.34-4.43,7.01-7.49,1.66-3.06,2.5-6.36,2.5-9.91v-33.51c0-.53-.19-1.26-.56-2.17-.38-.91-1.13-1.8-2.26-2.66-1.13-.86-2.74-1.61-4.83-2.26-2.1-.64-4.86-.97-8.3-.97-.43,0-.64-.27-.64-.81v-1.77c0-.54.21-.81.64-.81Z"/>
      <path class="cls-3" d="m637.2,201.74c0-.32.21-.59.64-.81.43-.21,1.18-.48,2.26-.81,1.07-.32,2.2-.83,3.38-1.53,1.18-.7,2.28-1.56,3.3-2.58,1.02-1.02,1.58-2.28,1.69-3.79v-24.16c0-3.11-.78-6.02-2.34-8.7-1.56-2.68-3.73-4.78-6.52-6.28h-.16c-.22-.11-.32-.27-.32-.48s.11-.38.32-.48c.21-.1.4-.21.56-.32.16-.1.35-.21.56-.32,2.47-1.5,4.4-3.54,5.8-6.12,1.4-2.58,2.1-5.32,2.1-8.22v-38.18c-.43-.97-1.15-1.82-2.17-2.58-1.02-.75-2.1-1.37-3.22-1.85-1.13-.48-2.2-.89-3.22-1.21-1.02-.32-1.69-.53-2.01-.64-.43-.21-.64-.48-.64-.81v-1.29c0-.65.32-.97.97-.97h44.62c.54,0,.81.27.81.81v1.77c0,.54-.27.81-.81.81-3.76.11-6.71.54-8.86,1.29-2.15.75-3.76,1.61-4.83,2.58-.86.86-1.34,1.88-1.45,3.06-.11,1.18.21,2.31.97,3.38l53.32,72.65h.32v-73.94c.11-1.61-.38-3.06-1.45-4.35-.97-1.18-2.52-2.23-4.67-3.14-2.15-.91-5.42-1.42-9.83-1.53-.54,0-.81-.27-.81-.81v-1.77c0-.54.27-.81.81-.81h38.5c.64,0,.97.32.97.97v1.29c0,.32-.22.59-.64.81-.43.11-1.18.35-2.26.72-1.07.38-2.2.91-3.38,1.61-1.18.7-2.25,1.56-3.22,2.58-.97,1.02-1.56,2.28-1.77,3.79v35.44c0,2.9.7,5.64,2.1,8.22,1.39,2.58,3.33,4.62,5.8,6.12.43.22.97.54,1.61.97.21.11.32.27.32.48s-.11.38-.32.48l-.65.32c-2.79,1.5-4.97,3.6-6.52,6.28-1.56,2.68-2.34,5.59-2.34,8.7v23.84c.21,1.5.81,2.77,1.77,3.79.97,1.02,2.04,1.88,3.22,2.58,1.18.7,2.31,1.21,3.38,1.53s1.82.59,2.26.81c.43.21.64.48.64.81v1.29c0,.54-.32.8-.97.8h-38.5c-.54,0-.81-.21-.81-.64v-1.77c0-.54.27-.81.81-.81h.16c1.72,0,2.93-.75,3.63-2.26.7-1.5.56-2.95-.4-4.35l-48.17-65.57c-.54-.54-.81-.43-.81.32v62.83c-.11,1.61.38,3.06,1.45,4.35.97,1.18,2.55,2.23,4.75,3.14,2.2.91,5.45,1.42,9.75,1.53.54,0,.81.27.81.81v1.77c0,.43-.27.64-.81.64h-38.5c-.64,0-.97-.27-.97-.8v-1.29Z"/>
      <path class="cls-2" d="m754,144.23v-.16l.16-1.13v-1.29c.64-7.52,2.66-14.52,6.04-21.02,3.38-6.5,7.73-12.13,13.05-16.92,5.32-4.78,11.38-8.54,18.21-11.28,6.82-2.74,13.99-4.05,21.51-3.95,8.91.11,17.18,1.34,24.81,3.71,7.62,2.36,14.87,6.77,21.75,13.21.64.54,1.02,1.18,1.13,1.93.11.75,0,1.5-.32,2.25l-9.99,19.01c-.43.64-.91.75-1.45.32l-.97-.48c-.32-.21-.48-.59-.48-1.13.11-.75.24-2.01.4-3.79.16-1.77.19-3.71.08-5.8-.11-2.1-.46-4.13-1.05-6.12-.59-1.99-1.59-3.62-2.98-4.91-2.9-2.58-6.47-4.43-10.71-5.56-4.24-1.13-8.57-1.69-12.97-1.69-5.8,0-11.25,1.08-16.35,3.22-5.1,2.15-9.64,5.13-13.61,8.94-3.97,3.81-7.22,8.27-9.75,13.37-2.52,5.1-4.11,10.66-4.75,16.67,0,.43-.05.81-.16,1.13v2.1c-.11.32-.16.91-.16,1.77v.32c0,.75.05,1.34.16,1.77v2.09c.11.22.16.59.16,1.13.65,5.91,2.23,11.44,4.75,16.59,2.52,5.16,5.77,9.61,9.75,13.37,3.97,3.76,8.51,6.74,13.61,8.94,5.1,2.2,10.55,3.3,16.35,3.3,1.82,0,3.95-.08,6.36-.24,2.42-.16,4.7-.62,6.85-1.37,2.15-.75,4-1.82,5.56-3.22,1.55-1.39,2.34-3.33,2.34-5.8v-14.82c-.22-1.07-.83-2.2-1.85-3.38-1.02-1.18-2.87-1.77-5.56-1.77-2.15,0-4.83.54-8.05,1.61-.43.11-.75-.05-.97-.48l-.64-1.61c-.22-.65-.06-.97.48-.97l43.98-15.79c.53-.32.91-.16,1.13.48l.48,1.13c.21.32.11.7-.32,1.13-.32.32-.89.83-1.69,1.53-.81.7-1.61,1.58-2.42,2.66-.81,1.07-1.5,2.28-2.09,3.62-.59,1.34-.89,2.77-.89,4.27v18.85c0,1.83-.4,3.55-1.21,5.16-.81,1.61-1.91,3.01-3.3,4.19-6.77,6.02-13.85,10.12-21.26,12.32-7.41,2.2-15.47,3.35-24.16,3.46-6.55,0-12.86-1.05-18.93-3.14-6.07-2.1-11.6-5.05-16.59-8.86-4.99-3.81-9.32-8.32-12.97-13.53-3.65-5.21-6.39-10.87-8.22-17-.11-.11-.16-.27-.16-.48-.11-.21-.19-.48-.24-.81-.06-.32-.14-.59-.24-.81-.86-3.54-1.37-6.76-1.53-9.67-.16-2.9-.19-5.1-.08-6.6Zm49.3,3.06c.86-.43,2.15-1.4,3.87-2.9,1.72-1.5,3.28-4.03,4.67-7.57,0-.32.16-.32.48,0,1.5,3.76,3.19,6.42,5.07,7.97,1.88,1.56,3.14,2.44,3.79,2.66v.16c-.64.21-1.93.94-3.87,2.17-1.93,1.24-3.65,3.57-5.15,7.01,0,.22-.11.22-.32,0-1.29-3.12-2.82-5.32-4.59-6.61-1.77-1.29-3.09-2.1-3.95-2.42-.22,0-.32-.05-.32-.16s.11-.21.32-.32Z"/>
      <path class="cls-5" d="m186.95,48.27l1.82-1.36c.61-.15.91-.53.91-1.14v-1.82c0-.91-.46-1.37-1.37-1.37h-65.73c-.76,0-1.14.38-1.14,1.14v2.5c0,.76.38,1.14,1.14,1.14,4.85,0,8.76.27,11.71.8,2.96.53,5.23,1.18,6.82,1.93,1.59.76,2.65,1.7,3.18,2.84.53,1.14.8,2.31.8,3.52,0,2.43-.53,4.7-1.59,6.82-.06.13-.12.27-.18.4-.58.35-1.16.7-1.74,1-6.94,3.53-12,5.63-15.2,6.28-.76-.12-1.16,0-1.22.39-.06.37.25.8.95,1.31,1.98,1.58,4.98,4.67,8.99,9.2-.6,1.39-1.14,2.55-1.61,3.48-3.94,8.34-8.23,17.25-12.85,26.72-4.63,9.48-8.91,18.31-12.85,26.5-4.55,9.55-9.1,19.03-13.65,28.43-9.55-20.47-18.05-38.81-25.47-55.04-3.19-6.82-6.29-13.57-9.32-20.24-1.62-3.57-3.15-6.91-4.6-10.07,3.91-4.42,6.85-7.43,8.8-8.99.7-.5,1.01-.94.95-1.31-.06-.38-.46-.51-1.22-.39-3.19-.65-8.26-2.75-15.2-6.28-.51-.26-1.02-.57-1.52-.87-.43-.96-.83-1.86-1.2-2.69-1.44-3.26-2.16-4.97-2.16-5.12-.15-.15-.23-.38-.23-.68,0-.6.23-1.21.68-1.82,1.36-1.51,3.67-2.88,6.94-4.09,3.26-1.21,7.85-1.89,13.76-2.05.76,0,1.14-.38,1.14-1.14v-2.5c0-.76-.38-1.14-1.14-1.14H1.36c-.91,0-1.36.46-1.36,1.37v1.82c0,.61.3.99.91,1.14,4.4,1.67,7.96,4.51,10.69,8.53,2.73,4.02,4.09,8.45,4.09,13.3v.18c-.87,1.01-1.78,1.94-2.71,2.77-6.1,5.41-10.22,8.67-12.36,9.79l.09.56c4.36,1.47,9.44,3.65,14.72,6.94.09.06.17.12.26.17v98.31c-.15,2.13-.91,3.91-2.27,5.35-1.37,1.44-2.88,2.65-4.55,3.64-1.67.99-3.26,1.7-4.78,2.16-1.52.46-2.58.84-3.19,1.14-.61.15-.91.53-.91,1.14v1.82c0,.76.46,1.14,1.36,1.14h54.13c.76,0,1.14-.3,1.14-.91v-2.5c0-.76-.38-1.14-1.14-1.14-6.07-.15-10.66-.87-13.76-2.16-3.11-1.29-5.27-2.77-6.48-4.43-1.52-1.82-2.2-3.87-2.05-6.14v-86.2l40.26,90.06c.6,1.37.6,2.73,0,4.09-.61,1.37-1.59,2.43-2.96,3.18-1.22.61-2.31,1.03-3.3,1.25-.99.23-1.71.5-2.16.8-.61.31-.91.68-.91,1.14v1.82c0,.76.46,1.14,1.36,1.14h45.03c.91,0,1.36-.38,1.36-1.14v-1.82c0-.45-.31-.83-.91-1.14-.45-.3-1.25-.6-2.39-.91-1.14-.3-2.39-.76-3.75-1.36-1.37-.76-2.31-1.82-2.84-3.18-.53-1.37-.42-2.73.34-4.09l1.36-3.18h.23v-.23l41.17-85.74v85.52h-.23c.15,2.27-.53,4.32-2.05,6.14-1.21,1.67-3.34,3.15-6.37,4.43-3.04,1.29-7.66,2.01-13.87,2.16-.76,0-1.14.38-1.14,1.14v2.5c0,.61.38.91,1.14.91h65.73c.91,0,1.37-.38,1.37-1.14v-1.82c0-.61-.31-.98-.91-1.14-.61-.3-1.44-.72-2.5-1.25-1.06-.53-2.24-1.33-3.53-2.39-1.29-1.06-2.58-2.39-3.87-3.98-1.29-1.59-2.39-3.45-3.3-5.57v-98.34c4.8-2.84,9.41-4.83,13.39-6.17l.09-.56c-2.14-1.12-6.26-4.38-12.36-9.79-.33-.3-.66-.61-.98-.93.31-3.85,1.22-7.56,2.82-11.11,1.97-4.39,4.78-8.19,8.41-11.37Zm-142.75,28.71c-.91.31-2.73,1.33-5.46,3.07-2.73,1.74-5.16,5.04-7.28,9.89h-.46c-1.82-4.4-3.98-7.51-6.48-9.33-2.5-1.82-4.36-2.95-5.57-3.41-.31,0-.45-.08-.45-.23s.15-.3.45-.45c1.06-.61,2.84-1.97,5.35-4.09,2.5-2.12,4.74-5.61,6.71-10.46,0-.3.07-.45.23-.45s.3.15.46.45c2.12,5.31,4.51,9.02,7.16,11.15,2.65,2.12,4.44,3.34,5.35,3.64v.23Zm126.98,0c-.91.31-2.73,1.33-5.46,3.07-2.73,1.74-5.16,5.04-7.28,9.89h-.46c-1.82-4.4-3.98-7.51-6.48-9.33-2.5-1.82-4.36-2.95-5.57-3.41-.31,0-.45-.08-.45-.23s.15-.3.45-.45c1.06-.61,2.84-1.97,5.35-4.09,2.5-2.12,4.74-5.61,6.71-10.46,0-.3.07-.45.23-.45s.3.15.46.45c2.12,5.31,4.51,9.02,7.16,11.15,2.65,2.12,4.44,3.34,5.35,3.64v.23Z"/>
      <g>
        <path class="cls-8" d="m860.5,70.16v7.31c-12.79-4.36-29.75-7.01-48.35-7.01s-35.77,2.69-48.58,7.09v-7.31c12.81-4.4,29.86-7.08,48.58-7.08s35.57,2.64,48.35,7Z"/>
        <path class="cls-7" d="m859.22,32.31l-7.24-7.25v13.34c.17.18.34.37.51.51,1.03.86,1.72,1.34,2.08,1.46v.09c-.35.12-1.06.52-2.12,1.19-1.06.68-2.01,1.96-2.83,3.85,0,.12-.06.12-.18,0-.71-1.71-1.55-2.92-2.52-3.63-.97-.71-1.7-1.15-2.17-1.33-.12,0-.18-.03-.18-.09s.06-.12.18-.18c.47-.24,1.18-.77,2.12-1.59.08-.07.16-.18.25-.26v-13.61l-8.27,3.82,6.36-13.85-10.35-14.79-14,14.64,3.18,14.49-9.24-4.78v1.71h0v11.45c.35.42.7.8,1.07,1.1,1.33,1.1,2.23,1.73,2.68,1.88v.12c-1.24.48-2.15,1.08-2.74,1.54-1.58,1.22-2.41,2.59-2.8,3.24-.4.68-.68,1.28-.86,1.73,0,.15-.08.15-.23,0-.18-.46-.44-1.06-.83-1.73-1.01-1.73-2.18-2.74-2.42-2.95-.98-.84-1.98-1.37-2.8-1.71-.15,0-.23-.04-.23-.11s.07-.15.23-.23c.61-.3,1.52-.99,2.74-2.06.27-.23.53-.52.78-.82v-6.56h0v-6.59l-9.24,4.78,3.18-14.49-14-14.64-10.35,14.79,6.36,13.85-8.27-3.82v13.6c.16.17.32.35.49.49,1.03.86,1.72,1.34,2.08,1.46v.09c-.35.12-1.06.52-2.12,1.19-1.06.68-2.01,1.96-2.83,3.85,0,.12-.06.12-.18,0-.71-1.71-1.55-2.92-2.52-3.63-.97-.71-1.7-1.15-2.17-1.33-.12,0-.18-.03-.18-.09s.06-.12.18-.18c.47-.24,1.18-.77,2.12-1.59.09-.08.18-.19.27-.28v-13.35l-7.24,7.25c-3.82-15.76-21.81-16.87-21.81-16.87,0,0,16.61,16.77,20.36,47.39,12.81-4.4,29.86-7.08,48.58-7.08s35.72,2.67,48.51,7.06c3.76-30.61,20.37-47.37,20.37-47.37,0,0-17.98,1.11-21.81,16.87Z"/>
      </g>
    </g>
  </g>
</svg>