<?xml version="1.0" encoding="UTF-8"?>
<svg id="Layer_2" data-name="Layer 2" xmlns="http://www.w3.org/2000/svg" viewBox="0 0 302 302">
  <defs>
    <style>
      .cls-1 {
        font-family: Pix32PixelFont, Pix32;
        font-size: 30.98px;
      }

      .cls-1, .cls-2 {
        fill: #423b54;
      }

      .cls-3 {
        fill: #3d3d3d;
      }

      .cls-3, .cls-4, .cls-5 {
        stroke-width: 0px;
      }

      .cls-2 {
        font-family: Arial-Black, Arial;
        font-size: 23.45px;
        font-weight: 800;
      }

      .cls-4 {
        fill: #cc4415;
      }

      .cls-6 {
        fill: none;
        stroke: #cc4415;
        stroke-dasharray: 0 0 12 12;
        stroke-linecap: round;
        stroke-miterlimit: 10;
        stroke-width: 4px;
      }

      .cls-5 {
        fill: #db7c5b;
      }
    </style>
  </defs>
  <g id="Layer_1-2" data-name="Layer 1">
    <g>
      <circle class="cls-6" cx="151" cy="151" r="149"/>
      <path class="cls-3" d="m225.09,142.9c0,4.47-3.63,8.1-8.1,8.1H85c-4.47,0-8.1-3.63-8.1-8.1v-48.59c0-4.47,3.63-8.1,8.1-8.1h131.99c4.47,0,8.1,3.63,8.1,8.1v48.59Zm-105.52-29.34h-11.42v-11.42h-9.28v11.42h-11.42v9.28h11.42v11.42h9.28v-11.42h11.42v-9.28Zm82.92-9.17c-2.84,0-5.15,2.31-5.15,5.15s2.31,5.15,5.15,5.15,5.15-2.31,5.15-5.15-2.31-5.15-5.15-5.15Zm-15.99,0c-2.84,0-5.15,2.31-5.15,5.15s2.31,5.15,5.15,5.15,5.15-2.31,5.15-5.15-2.31-5.15-5.15-5.15Zm15.99,17.23c-2.84,0-5.15,2.31-5.15,5.15s2.31,5.15,5.15,5.15,5.15-2.31,5.15-5.15-2.31-5.15-5.15-5.15Zm-15.99,0c-2.84,0-5.15,2.31-5.15,5.15s2.31,5.15,5.15,5.15,5.15-2.31,5.15-5.15-2.31-5.15-5.15-5.15Zm-29.84,5.48h-12.96v4.45h12.96v-4.45Zm1-42.51v-7.69c0-2.02-1.64-3.66-3.66-3.66h-7.65c-2.02,0-3.66,1.64-3.66,3.66v7.69h14.96Zm-4.94-13.15v-10.11c0-3.57,2.91-6.48,6.48-6.48h31.99c3.57,0,6.48,2.91,6.48,6.48v21.24h4.86v-21.24c0-6.25-5.09-11.34-11.34-11.34h-31.99c-6.25,0-11.34,5.09-11.34,11.34v10.11h4.86Z"/>
      <g>
        <g>
          <circle class="cls-4" cx="151" cy="231.19" r="17.81"/>
          <circle class="cls-5" cx="151" cy="227.63" r="17.81"/>
          <text class="cls-2" transform="translate(141.84 235.57)"><tspan x="0" y="0">B</tspan></text>
        </g>
        <text class="cls-1" transform="translate(117.82 197.4) scale(.99 1)"><tspan x="0" y="0">SALIR</tspan></text>
      </g>
    </g>
  </g>
</svg>